<?xml version="1.0" encoding="UTF-8"?>
<svg version="1.1" xmlns="http://www.w3.org/2000/svg" width="655" height="199">
<path d="M0 0 C141.57 0 283.14 0 429 0 C429 14.85 429 29.7 429 45 C287.43 45 145.86 45 0 45 C0 30.15 0 15.3 0 0 Z " fill="#231F20" transform="translate(222,115)"/>
<path d="M0 0 C1.32354639 0.82725232 2.64860154 1.65209525 3.97509766 2.47460938 C6.64555657 4.13450267 9.30782987 5.80638954 11.96386719 7.48925781 C16.35747799 10.26766449 20.80247158 12.95825023 25.25390625 15.64282227 C29.76598848 18.36503514 34.25773852 21.12024562 38.75 23.875 C39.56823242 24.37563965 40.38646484 24.8762793 41.22949219 25.39208984 C43.48947667 26.7771969 45.74553372 28.1684339 48 29.5625 C48.97525635 30.15998047 48.97525635 30.15998047 49.97021484 30.76953125 C57.28578894 35.32162087 57.28578894 35.32162087 58.318573 38.77760315 C58.93759072 44.81712613 58.31610405 50.15483924 57.1328125 56.08984375 C56.95620087 57.02679581 56.77958923 57.96374786 56.59762573 58.92909241 C56.03553791 61.89269467 55.45520417 64.85239767 54.875 67.8125 C54.49236356 69.82595821 54.11084236 71.8396287 53.73046875 73.85351562 C53.36557825 75.76581511 52.99972725 77.67793163 52.6328125 79.58984375 C52.37336349 80.94286842 52.37336349 80.94286842 52.1086731 82.32322693 C51.94535492 83.15491898 51.78203674 83.98661102 51.61376953 84.84350586 C51.4708548 85.57580917 51.32794006 86.30811249 51.18069458 87.06260681 C50.75 88.875 50.75 88.875 49.75 90.875 C43.15 90.875 36.55 90.875 29.75 90.875 C30.44300372 86.69396282 31.13651219 82.51301577 31.83129883 78.33227539 C32.06727142 76.911426 32.30295229 75.49052813 32.53833008 74.06958008 C32.87764135 72.02151735 33.218018 69.97363404 33.55859375 67.92578125 C33.76282959 66.69512939 33.96706543 65.46447754 34.17749023 64.1965332 C34.65758085 61.4111887 35.19507148 58.64593276 35.75 55.875 C35.97642922 53.83635602 35.97642922 53.83635602 36 51.875 C36.02578125 51.235625 36.0515625 50.59625 36.078125 49.9375 C35.61183959 47.00656311 34.47176148 45.29531513 32.75 42.875 C30.08933728 40.95315798 30.08933728 40.95315798 26.921875 39.34375 C26.34427933 39.03055313 25.76668365 38.71735626 25.17158508 38.39466858 C23.28729257 37.37599928 21.39399746 36.37549063 19.5 35.375 C17.53088296 34.31800785 15.56404409 33.25685937 13.5973053 32.19544983 C12.26604782 31.47739665 10.9339598 30.76088122 9.60105896 30.04588318 C5.33596344 27.7532525 1.11954795 25.39344841 -3.07421875 22.97265625 C-4.11094727 22.37453125 -5.14767578 21.77640625 -6.21582031 21.16015625 C-8.15241638 20.03752875 -10.0855528 18.90890519 -12.01464844 17.7734375 C-18.23282964 14.13634788 -18.23282964 14.13634788 -25.25 12.875 C-31.55904046 15.18831483 -35.75327806 18.90464475 -40.625 23.45703125 C-44.06941246 26.62978618 -47.69356207 29.54651569 -51.33203125 32.4921875 C-54.50417563 35.08255975 -57.63038741 37.72188013 -60.75 40.375 C-66.52498825 45.28129843 -72.35933369 50.10771397 -78.25 54.875 C-79.5803125 55.99068359 -79.5803125 55.99068359 -80.9375 57.12890625 C-83.25 58.875 -83.25 58.875 -85.25 58.875 C-80.04325417 40.00054635 -66.59552779 23.7462607 -53.25 9.875 C-52.58484375 9.13507812 -51.9196875 8.39515625 -51.234375 7.6328125 C-35.65337934 -9.19204416 -18.8162355 -12.12029489 0 0 Z " fill="#00AEEF" transform="translate(90.25,16.125)"/>
<path d="M0 0 C5.77857598 5.77857598 3.22164031 23.63352673 3.24023438 31.65454102 C3.24991911 34.16651817 3.28105046 36.67766716 3.3125 39.18945312 C3.42676116 56.67526212 2.58602019 78.20231109 -10.30078125 91.48046875 C-15.71648301 96.32347561 -20.55108235 97.06999709 -27.61352539 97.48071289 C-28.26943665 97.5198732 -28.9253479 97.55903351 -29.60113525 97.59938049 C-31.76643794 97.72761697 -33.9320146 97.85028788 -36.09765625 97.97265625 C-37.61259855 98.06066535 -39.12752654 98.14892099 -40.6424408 98.2374115 C-43.82065496 98.4221996 -46.99900916 98.60428649 -50.17749023 98.78442383 C-54.22339965 99.01389362 -58.26891965 99.2495402 -62.3143549 99.48720646 C-65.44661587 99.67059841 -68.57905096 99.8508641 -71.71154594 100.03021049 C-73.20132025 100.11582766 -74.69104401 100.20232967 -76.18071175 100.28978157 C-101.67955343 101.78039075 -101.67955343 101.78039075 -106 98 C-108.17763924 95.34192645 -109.64326348 92.83084146 -110.91699219 89.64624023 C-111.26034607 88.7953331 -111.60369995 87.94442596 -111.9574585 87.06773376 C-112.31696594 86.15721756 -112.67647339 85.24670135 -113.046875 84.30859375 C-113.42233459 83.36693863 -113.79779419 82.42528351 -114.18463135 81.45509338 C-114.97436627 79.468457 -115.7608969 77.48054423 -116.54443359 75.49145508 C-117.74869468 72.44080665 -118.96944767 69.39711128 -120.19140625 66.35351562 C-120.95674023 64.42227537 -121.72109705 62.49064753 -122.484375 60.55859375 C-122.85197937 59.64605331 -123.21958374 58.73351288 -123.59832764 57.7933197 C-123.92907288 56.94556473 -124.25981812 56.09780975 -124.60058594 55.22436523 C-124.89576111 54.47920151 -125.19093628 53.73403778 -125.49505615 52.96629333 C-126 51 -126 51 -125 48 C-123.35766602 46.74145508 -123.35766602 46.74145508 -121.25390625 45.51953125 C-120.12178711 44.85727539 -120.12178711 44.85727539 -118.96679688 44.18164062 C-118.17337891 43.72982422 -117.37996094 43.27800781 -116.5625 42.8125 C-115.77294922 42.34908203 -114.98339844 41.88566406 -114.16992188 41.40820312 C-108.28211294 38 -108.28211294 38 -106 38 C-105.62713867 39.09989258 -105.25427734 40.19978516 -104.87011719 41.33300781 C-103.48041109 45.42223582 -102.07529777 49.5060292 -100.66552734 53.58837891 C-100.05813447 55.35419146 -99.45489978 57.12144012 -98.85595703 58.89013672 C-97.9930651 61.43588257 -97.11522797 63.97604655 -96.234375 66.515625 C-95.83880402 67.69865204 -95.83880402 67.69865204 -95.4352417 68.90557861 C-93.95736414 73.11501634 -92.6904958 76.23872775 -89 79 C-86.07010452 80.12800793 -83.41432925 80.08042224 -80.30078125 79.94921875 C-79.35436768 79.91135254 -78.4079541 79.87348633 -77.43286133 79.83447266 C-76.40314209 79.78597168 -75.37342285 79.7374707 -74.3125 79.6875 C-73.23701904 79.63899902 -72.16153809 79.59049805 -71.0534668 79.54052734 C-68.67738574 79.42952843 -66.30149524 79.31439673 -63.92578125 79.19580078 C-61.18111511 79.05890885 -58.43654683 78.92669377 -55.69140625 78.80029297 C-51.96571194 78.62745214 -48.24108771 78.43872724 -44.51669312 78.23989868 C-43.05518423 78.16371414 -41.59344232 78.09186783 -40.13150024 78.02450562 C-38.06201472 77.92767911 -35.99414091 77.81353483 -33.92578125 77.6953125 C-32.73380127 77.63359863 -31.54182129 77.57188477 -30.3137207 77.50830078 C-26.35642658 76.90128049 -24.21580584 76.44745705 -21 74 C-19.15145755 70.48754472 -18.09014376 66.80613973 -17 63 C-16.67197388 61.87236237 -16.34394775 60.74472473 -16.00598145 59.58291626 C-14.93204829 55.77922639 -13.9056227 51.96422044 -12.890625 48.14453125 C-12.51562198 46.74766335 -12.14018681 45.35091139 -11.76434326 43.95426941 C-10.78686694 40.31741292 -9.81518157 36.67903483 -8.8447876 33.0402832 C-7.84930868 29.31170646 -6.84823151 25.58463357 -5.84765625 21.85742188 C-3.89302544 14.57305648 -1.94452378 7.28707074 0 0 Z " fill="#00AEEF" transform="translate(190,68)"/>
<path d="M0 0 C3.2172761 1.34597298 6.07026661 3.11833504 9 5 C9.87285645 5.54269531 10.74571289 6.08539063 11.64501953 6.64453125 C14.46454726 8.4090388 17.2651952 10.20049671 20.0625 12 C21.94903418 13.20862148 23.83574985 14.41695972 25.72265625 15.625 C26.61355957 16.19605469 27.50446289 16.76710938 28.42236328 17.35546875 C31.93296204 19.59522943 35.46384958 21.80083931 39 24 C38.52202924 26.41690876 38.0426678 28.83352763 37.5625 31.25 C37.36043945 32.27287109 37.36043945 32.27287109 37.15429688 33.31640625 C36.50779289 36.56469458 35.84997305 39.79815978 35 43 C29.05148786 41.38751076 24.08711298 38.33797804 18.8125 35.25 C16.93244553 34.16770144 15.05223871 33.08566747 13.171875 32.00390625 C10.23209879 30.30279384 7.3025187 28.5881804 4.390625 26.83984375 C3.45734375 26.29457031 2.5240625 25.74929687 1.5625 25.1875 C0.80066406 24.72730469 0.03882812 24.26710938 -0.74609375 23.79296875 C-4.00765694 22.64548638 -5.69217566 22.95414377 -9 24 C-11.71175838 25.76202502 -14.11905793 27.82452589 -16.5625 29.9375 C-17.98710632 31.13291201 -19.41290248 32.32690739 -20.83984375 33.51953125 C-21.54351074 34.1120166 -22.24717773 34.70450195 -22.97216797 35.31494141 C-25.79834949 37.66340094 -28.69957488 39.90231287 -31.625 42.125 C-32.65753906 42.9190625 -33.69007812 43.713125 -34.75390625 44.53125 C-37.07596288 46.30807828 -39.42207311 48.04874714 -41.77734375 49.78125 C-50.9107984 56.31710736 -50.9107984 56.31710736 -56 66 C-55.6332618 73.33268315 -53.22031743 79.8591773 -50.81640625 86.75 C-50.18136434 88.60314753 -49.54632569 90.45629617 -48.91147518 92.30950928 C-48.02576983 94.88880146 -47.13301412 97.46563008 -46.24023438 100.04248047 C-44.67930476 104.55095802 -43.12711075 109.06243963 -41.57859802 113.57519531 C-40.75547017 115.97168857 -39.92870656 118.36693706 -39.09779358 120.76074219 C-37.13205372 126.46864184 -35.34211678 132.11281438 -34 138 C-38.84521194 134.08926951 -42.77006653 130.14202582 -46.375 125.0625 C-46.84268799 124.4120874 -47.31037598 123.7616748 -47.79223633 123.09155273 C-60.67160949 104.92138292 -74.24095386 83.38179078 -74.5625 60.5 C-74.57732422 59.77055176 -74.59214844 59.04110352 -74.60742188 58.28955078 C-74.50252963 52.83390519 -73.28756861 48.41239594 -70 44 C-67.19948279 41.36145234 -64.16298191 39.18273453 -61 37 C-60.23171875 36.45037598 -59.4634375 35.90075195 -58.671875 35.33447266 C-56.29449729 33.64069076 -53.90002978 31.97400416 -51.5 30.3125 C-49.73414772 29.08365988 -47.96852654 27.8544876 -46.203125 26.625 C-45.32849609 26.0165625 -44.45386719 25.408125 -43.55273438 24.78125 C-40.47336642 22.632525 -37.40668567 20.46639502 -34.34350586 18.29467773 C-32.27085713 16.8272666 -30.19231131 15.3685068 -28.11328125 13.91015625 C-25.27054504 11.91202569 -22.46308091 9.87274421 -19.66796875 7.80859375 C-18.25796425 6.78885264 -16.84781328 5.76931402 -15.4375 4.75 C-14.80682617 4.27151611 -14.17615234 3.79303223 -13.52636719 3.30004883 C-9.19622532 0.20848358 -5.36523648 -1.22006084 0 0 Z " fill="#00AEEF" transform="translate(76,42)"/>
<path d="M0 0 C7.46354117 0.53259599 14.55001603 1.85013145 21.8125 3.625 C22.89837402 3.89006348 23.98424805 4.15512695 25.10302734 4.42822266 C71.42844447 16.02140672 71.42844447 16.02140672 84.0625 35.3125 C88.40548627 42.68475783 87.34701051 50.67172139 85.51879883 58.71362305 C85.36101959 59.43827759 85.20324036 60.16293213 85.04067993 60.9095459 C84.52188265 63.27904925 83.99035548 65.64544584 83.45703125 68.01171875 C83.08764901 69.66977709 82.71848654 71.3278844 82.34953308 72.98603821 C81.57636937 76.44955276 80.79605117 79.91136842 80.01147461 83.37231445 C79.00901983 87.80002681 78.03156182 92.23285456 77.06023121 96.66748333 C76.30666315 100.08904479 75.53641457 103.50669216 74.76148033 106.92347145 C74.39393605 108.55635803 74.03236223 110.19060077 73.67698097 111.8261776 C73.17813229 114.1133186 72.65612727 116.39398813 72.12817383 118.67456055 C71.91669456 119.68070152 71.91669456 119.68070152 71.70094299 120.70716858 C70.39375924 126.16887139 67.67533895 129.25463775 63.02783203 132.28662109 C60.47726585 133.18389468 58.25752289 133.32501825 55.5546875 133.4140625 C53.95052979 133.47219116 53.95052979 133.47219116 52.31396484 133.53149414 C50.61167725 133.57777954 50.61167725 133.57777954 48.875 133.625 C47.71822754 133.66294678 46.56145508 133.70089355 45.36962891 133.73999023 C35.91166555 134.02879801 26.46123796 134.11001439 17 134 C10 120.24579832 10 120.24579832 10 115 C11.05388916 114.95512451 12.10777832 114.91024902 13.19360352 114.86401367 C17.12853683 114.6929074 21.06246628 114.50418074 24.99633789 114.31030273 C26.69435894 114.22904457 28.39261144 114.15247454 30.09106445 114.08081055 C32.54194782 113.97656353 34.99148513 113.85510566 37.44140625 113.73046875 C38.19273331 113.70220505 38.94406036 113.67394135 39.71815491 113.64482117 C44.66674622 113.37125452 48.69867461 112.66646865 53 110 C54.4708746 107.14818834 55.25720359 105.05567561 56 102 C56.22037933 101.10481659 56.44075867 100.20963318 56.66781616 99.287323 C57.39213864 96.15701271 58.05277338 93.01838871 58.69921875 89.87109375 C59.05908623 88.14839012 59.05908623 88.14839012 59.42622375 86.3908844 C59.92933264 83.97356919 60.4292085 81.55557909 60.92602539 79.13696289 C61.6861664 75.44397901 62.46056398 71.75418286 63.23632812 68.06445312 C63.72481888 65.7085116 64.21247744 63.35239734 64.69921875 60.99609375 C64.93041916 59.89800888 65.16161957 58.79992401 65.39982605 57.66856384 C67.62204875 48.41388186 67.62204875 48.41388186 65.6875 39.45703125 C61.58480797 35.70616892 56.87937621 33.30681658 52 30.6875 C49.7479638 29.45316137 47.49669126 28.21742864 45.24609375 26.98046875 C44.66089462 26.6604892 44.0756955 26.34050964 43.47276306 26.01083374 C37.23173382 22.59498635 31.05144181 19.07484328 24.87768555 15.53921509 C23.10891374 14.52657241 21.33876276 13.51637859 19.56835938 12.5065918 C14.42303257 9.56484957 9.28831444 6.60549039 4.18359375 3.59375 C3.3733374 3.11615234 2.56308105 2.63855469 1.72827148 2.14648438 C1.15794189 1.76814453 0.5876123 1.38980469 0 1 C0 0.67 0 0.34 0 0 Z " fill="#00AEEF" transform="translate(92,2)"/>
<path d="M0 0 C3.65979589 1.51056826 6.69440095 3.61641209 9.88671875 5.9375 C10.53189453 6.38480469 11.17707031 6.83210938 11.84179688 7.29296875 C13.48042216 8.46861737 15.03537775 9.75896216 16.57421875 11.0625 C16.57421875 12.0525 16.57421875 13.0425 16.57421875 14.0625 C15.05224609 15.36181641 15.05224609 15.36181641 12.91015625 16.6640625 C11.73054321 17.39314819 11.73054321 17.39314819 10.52709961 18.13696289 C9.67639893 18.64864014 8.82569824 19.16031738 7.94921875 19.6875 C6.20813134 20.76139133 4.46724775 21.83561318 2.7265625 22.91015625 C1.85757324 23.44141113 0.98858398 23.97266602 0.09326172 24.52001953 C-3.45326255 26.69165554 -6.97694282 28.89703171 -10.48828125 31.125 C-11.59300781 31.81722656 -12.69773437 32.50945312 -13.8359375 33.22265625 C-16.62197224 34.96997289 -16.62197224 34.96997289 -18.42578125 38.0625 C-18.17617151 45.36436901 -16.11223285 51.6006607 -13.6015625 58.4140625 C-13.21767868 59.47233246 -12.83379486 60.53060242 -12.4382782 61.62094116 C-11.62717976 63.84651227 -10.81082597 66.0701744 -9.98950195 68.29199219 C-8.74187399 71.67775019 -7.52153327 75.07252425 -6.30273438 78.46875 C-5.5081494 80.63862171 -4.71197811 82.80791333 -3.9140625 84.9765625 C-3.55443924 85.9840152 -3.19481598 86.9914679 -2.82429504 88.02944946 C-0.63793801 93.86131926 1.76103847 98.94256987 6.57421875 103.0625 C20.57445077 107.72924401 38.93065501 105.62682359 53.51171875 106.125 C56.1412836 106.21658011 58.77084097 106.30837518 61.40039062 106.40039062 C67.79158253 106.62357331 74.18286179 106.84409786 80.57421875 107.0625 C80.57421875 107.7225 80.57421875 108.3825 80.57421875 109.0625 C59.61732828 116.01098323 38.9004824 121.43736704 16.69921875 121.625 C14.9982605 121.64711548 14.9982605 121.64711548 13.26293945 121.66967773 C2.76127371 121.54016158 -6.64711421 119.31375763 -14.70703125 112.33203125 C-20.4104756 104.80089223 -22.40830416 94.93121521 -24.97265625 85.9921875 C-25.39262886 84.54199824 -25.81290206 83.091896 -26.23345947 81.64187622 C-27.10843561 78.61910519 -27.97847456 75.59496659 -28.84521484 72.56982422 C-29.95296508 68.70570256 -31.07507988 64.84592035 -32.2011528 60.98710442 C-33.07073171 58.00002713 -33.93163257 55.01050056 -34.79007721 52.02020645 C-35.20022409 50.59610735 -35.61326004 49.17283682 -36.02931976 47.75045395 C-36.61023923 45.76040754 -37.17908619 43.76727367 -37.74511719 41.77294922 C-38.07058533 40.64315643 -38.39605347 39.51336365 -38.73138428 38.34933472 C-39.70376337 33.74670901 -40.35178867 29.69677796 -37.98046875 25.51171875 C-34.46808255 22.14433932 -30.60675049 19.54619914 -26.55078125 16.875 C-24.84129609 15.73479794 -23.13297263 14.59285236 -21.42578125 13.44921875 C-20.58144531 12.88380371 -19.73710938 12.31838867 -18.8671875 11.73583984 C-16.61498788 10.19218223 -14.41956591 8.59881856 -12.23828125 6.95703125 C-11.61034668 6.48740967 -10.98241211 6.01778809 -10.33544922 5.53393555 C-9.17436811 4.65796259 -8.02176057 3.77060451 -6.87939453 2.87036133 C-4.54540351 1.12440255 -2.95366905 0.07610097 0 0 Z " fill="#00AEEF" transform="translate(72.42578125,75.9375)"/>
<path d="M0 0 C4.95 0 9.9 0 15 0 C18.28178535 7.93349027 21.0696871 15.9705627 23.75 24.125 C24.16121094 25.36765625 24.57242187 26.6103125 24.99609375 27.890625 C26.00016255 30.92618183 27.00139873 33.96264107 28 37 C29.04327788 34.18808832 30.08500258 31.37562549 31.125 28.5625 C31.43904785 27.71316895 31.7530957 26.86383789 32.07666016 25.98876953 C34.50147551 19.40747652 36.85221139 12.80265742 39.13330078 6.17016602 C40.89294865 1.10705135 40.89294865 1.10705135 42 0 C46.62 0 51.24 0 56 0 C56 19.14 56 38.28 56 58 C52.04 58 48.08 58 44 58 C43.67 48.76 43.34 39.52 43 30 C39.7 39.24 36.4 48.48 33 58 C29.7 58 26.4 58 23 58 C19.15134805 48.82244535 16.10364576 39.4520121 13 30 C12.67 39.24 12.34 48.48 12 58 C8.04 58 4.08 58 0 58 C0 38.86 0 19.72 0 0 Z " fill="#00AEEF" transform="translate(270,48)"/>
<path d="M0 0 C11 0 11 0 13.33203125 1.66796875 C13.82058594 2.49941406 14.30914063 3.33085938 14.8125 4.1875 C15.73482422 5.65703125 15.73482422 5.65703125 16.67578125 7.15625 C17.02334473 7.74019531 17.3709082 8.32414062 17.72900391 8.92578125 C19.83499419 12.36267972 22.11610661 15.68170995 24.37182617 19.02148438 C27.26993867 23.33291295 30.13110626 27.66907388 33 32 C33.33 21.44 33.66 10.88 34 0 C37.96 0 41.92 0 46 0 C46 19.14 46 38.28 46 58 C34 58 34 58 31.03295898 55.60083008 C30.36079346 54.50150146 29.68862793 53.40217285 28.99609375 52.26953125 C28.62065933 51.68209641 28.24522491 51.09466156 27.8584137 50.48942566 C26.67634797 48.61957488 25.55782919 46.71983929 24.4375 44.8125 C23.65431376 43.55159122 22.86723117 42.29309379 22.07617188 41.03710938 C20.00127645 37.7201634 17.99247962 34.36721769 16 31 C15.01 29.35 14.02 27.7 13 26 C12.67 36.56 12.34 47.12 12 58 C8.04 58 4.08 58 0 58 C0 38.86 0 19.72 0 0 Z " fill="#00AEEF" transform="translate(540,48)"/>
<path d="M0 0 C5.28 -0.061875 10.56 -0.12375 16 -0.1875 C17.65 -0.21481201 19.3 -0.24212402 21 -0.27026367 C36.81975204 -0.42585077 36.81975204 -0.42585077 42.83984375 4.5078125 C46.42107445 9.7840741 47.73741711 14.79057732 46.625 21.140625 C44.93764031 26.66672798 41.59505063 29.67645653 37 33 C37.804375 34.03125 38.60875 35.0625 39.4375 36.125 C42.40531979 40.08921013 45.16767362 44.16822867 47.875 48.3125 C48.28032959 48.92303223 48.68565918 49.53356445 49.10327148 50.16259766 C52 54.64709355 52 54.64709355 52 58 C47.28277218 59.13045992 42.56334842 59.9795347 38 58 C33.94030052 54.10991963 31.29004584 49.1721267 28.5234375 44.328125 C25.91738167 39.59960087 25.91738167 39.59960087 22 36 C18.7 35.34 15.4 34.68 12 34 C12 41.92 12 49.84 12 58 C8.04 58 4.08 58 0 58 C0 38.86 0 19.72 0 0 Z M12 11 C12 14.96 12 18.92 12 23 C14.91722548 23.08103404 17.83219516 23.14051081 20.75 23.1875 C21.575 23.21263672 22.4 23.23777344 23.25 23.26367188 C28.08148355 23.33245714 28.08148355 23.33245714 32.546875 21.67578125 C34.27130957 19.98167968 34.27130957 19.98167968 34.5 17 C34.27130957 14.01832032 34.27130957 14.01832032 32.546875 12.32421875 C28.68203036 10.31473664 25.03339073 10.68199044 20.75 10.8125 C19.48929687 10.83280273 19.48929687 10.83280273 18.203125 10.85351562 C16.13514062 10.88876536 14.06748729 10.9425698 12 11 Z " fill="#00AEEF" transform="translate(381,48)"/>
<path d="M0 0 C5.48357821 4.37974104 6.69166052 9.85111495 7.8046875 16.44140625 C3.53852434 17.57904976 0.23982439 18.44140625 -4.1953125 18.44140625 C-4.84635417 16.71614583 -5.49739583 14.99088542 -6.1484375 13.265625 C-7.52411144 10.86846183 -8.79571787 9.81972012 -11.1953125 8.44140625 C-16.6783428 7.59375115 -21.66736166 7.77125237 -26.7578125 10.00390625 C-31.55537174 14.80146549 -32.37443626 18.9175676 -32.5703125 25.50390625 C-32.46422577 30.21297854 -31.75173338 33.39373986 -29.1953125 37.44140625 C-29.1953125 38.10140625 -29.1953125 38.76140625 -29.1953125 39.44140625 C-22.08472382 42.32407734 -15.69284559 43.94983729 -8.1953125 41.31640625 C-7.2053125 40.69765625 -6.2153125 40.07890625 -5.1953125 39.44140625 C-4.8653125 37.46140625 -4.5353125 35.48140625 -4.1953125 33.44140625 C-9.1453125 33.44140625 -14.0953125 33.44140625 -19.1953125 33.44140625 C-19.1953125 29.81140625 -19.1953125 26.18140625 -19.1953125 22.44140625 C-10.2853125 22.44140625 -1.3753125 22.44140625 7.8046875 22.44140625 C8.0109375 26.27765625 8.2171875 30.11390625 8.4296875 34.06640625 C8.56624756 35.86392334 8.56624756 35.86392334 8.70556641 37.69775391 C8.78776965 40.85594958 8.69524733 43.40092002 7.8046875 46.44140625 C4.84516175 49.37567289 1.6438189 50.90109048 -2.1953125 52.44140625 C-3.23171875 52.88742188 -4.268125 53.3334375 -5.3359375 53.79296875 C-14.78617424 55.93605522 -25.83300015 55.65046219 -34.1953125 50.44140625 C-40.15729355 46.09388815 -43.61416716 40.63608533 -45.1953125 33.44140625 C-46.28821174 22.34340876 -45.42137825 12.71388182 -38.5078125 3.56640625 C-29.1067966 -6.52481082 -11.20449852 -7.20289191 0 0 Z " fill="#00AEEF" transform="translate(477.1953125,51.55859375)"/>
<path d="M0 0 C13.86 0 27.72 0 42 0 C42 3.63 42 7.26 42 11 C32.1 11 22.2 11 12 11 C12 14.63 12 18.26 12 22 C21.24 22 30.48 22 40 22 C40 25.96 40 29.92 40 34 C30.76 34 21.52 34 12 34 C12 37.96 12 41.92 12 46 C22.56 46 33.12 46 44 46 C44 49.96 44 53.92 44 58 C29.48 58 14.96 58 0 58 C0 38.86 0 19.72 0 0 Z " fill="#00AEEF" transform="translate(491,48)"/>
<path d="M0 0 C13.86 0 27.72 0 42 0 C42 3.63 42 7.26 42 11 C32.1 11 22.2 11 12 11 C12 14.63 12 18.26 12 22 C21.24 22 30.48 22 40 22 C40 25.96 40 29.92 40 34 C30.76 34 21.52 34 12 34 C12 37.96 12 41.92 12 46 C22.56 46 33.12 46 44 46 C44 49.96 44 53.92 44 58 C29.48 58 14.96 58 0 58 C0 38.86 0 19.72 0 0 Z " fill="#00AEEF" transform="translate(332,48)"/>
<path d="M0 0 C13.86 0 27.72 0 42 0 C42 3.63 42 7.26 42 11 C32.1 11 22.2 11 12 11 C12 14.63 12 18.26 12 22 C21.24 22 30.48 22 40 22 C40 25.96 40 29.92 40 34 C30.76 34 21.52 34 12 34 C12 37.96 12 41.92 12 46 C22.56 46 33.12 46 44 46 C44 49.96 44 53.92 44 58 C29.48 58 14.96 58 0 58 C0 38.86 0 19.72 0 0 Z " fill="#00AEEF" transform="translate(222,48)"/>
<path d="M0 0 C14.85 0 29.7 0 45 0 C45 2.97 45 5.94 45 9 C39.72 9 34.44 9 29 9 C29 24.51 29 40.02 29 56 C25.04 56 21.08 56 17 56 C17 40.49 17 24.98 17 9 C11.39 9 5.78 9 0 9 C0 6.03 0 3.06 0 0 Z " fill="#00AEEF" transform="translate(589,48)"/>
<path d="M0 0 C2.18359375 1.22265625 2.18359375 1.22265625 4 3 C5.00769037 7.43828332 4.75975802 11.67042347 2.5 15.625 C-1.04624011 17.57543206 -4.04922572 17.92292678 -8 17 C-11.24985922 14.31886615 -11.89575014 12.64866582 -12.5625 8.5 C-12 5 -12 5 -9.9375 2.0625 C-6.27096589 -0.51187502 -4.39593437 -0.63940864 0 0 Z " fill="#EDEDED" transform="translate(477,129)"/>
<path d="M0 0 C2.375 1 2.375 1 4 3 C5.08745801 7.49482645 5.57436819 9.71450929 3.6875 13.9375 C2 16 2 16 0 17 C-7.33392983 17.46564634 -7.33392983 17.46564634 -9.7265625 15.79296875 C-12.20384268 12.30501905 -11.58716791 8.07681353 -11 4 C-8.24432358 -0.62953638 -5.11343733 -0.63917967 0 0 Z " fill="#EDEDED" transform="translate(583,129)"/>
<path d="M0 0 C3.69186542 2.59216083 4.82883761 4.04149064 5.625 8.5 C5 12 5 12 3 14.9375 C-1.13280711 17.77880489 -3.06016309 17.7170731 -8 17 C-10 15.5625 -10 15.5625 -11 13 C-11.63048504 8.65045129 -11.76198611 5.24965721 -9.4375 1.4375 C-6.00082919 -0.58925458 -3.92582814 -0.6198676 0 0 Z " fill="#EBEBEB" transform="translate(272,129)"/>
<path d="M0 0 C1.890625 0.21484375 1.890625 0.21484375 4 1 C5.46742502 3.89652178 6.11450315 6.85648617 7 10 C7.66 6.7 8.32 3.4 9 0 C10.65 0.33 12.3 0.66 14 1 C14.66 3.97 15.32 6.94 16 10 C17.32 6.7 18.64 3.4 20 0 C20.99 0 21.98 0 23 0 C21.07289294 11.52164009 21.07289294 11.52164009 19 17 C17.35 17 15.7 17 14 17 C13.01 14.36 12.02 11.72 11 9 C10.34 11.64 9.68 14.28 9 17 C7.35 17 5.7 17 4 17 C2.34315863 13.2477416 1.49791837 9.73646939 0.875 5.6875 C0.70742188 4.61886719 0.53984375 3.55023438 0.3671875 2.44921875 C0.24601562 1.64097656 0.12484375 0.83273438 0 0 Z " fill="#EBEBEB" transform="translate(328,129)"/>
<path d="M0 0 C2.3125 0 2.3125 0 5 1 C6.6721029 3.23482984 7.76022695 5.47453638 9 8 C9.33 5.36 9.66 2.72 10 0 C11.32 0 12.64 0 14 0 C14 5.61 14 11.22 14 17 C12.35 17 10.7 17 9 17 C7.35 14.03 5.7 11.06 4 8 C3.67 10.97 3.34 13.94 3 17 C1.68 17 0.36 17 -1 17 C-1.02684679 14.35409986 -1.04676357 11.70846904 -1.0625 9.0625 C-1.07087891 8.30775391 -1.07925781 7.55300781 -1.08789062 6.77539062 C-1.09652441 4.85005687 -1.05224333 2.92464419 -1 1 C-0.67 0.67 -0.34 0.34 0 0 Z " fill="#D8D8D8" transform="translate(599,129)"/>
<path d="M0 0 C1.423125 -0.061875 2.84625 -0.12375 4.3125 -0.1875 C5.51326172 -0.23970703 5.51326172 -0.23970703 6.73828125 -0.29296875 C9 0 9 0 10.8125 1.35546875 C12 3 12 3 11.6875 5.5 C11.460625 6.325 11.23375 7.15 11 8 C11 11.11227195 11.45627049 13.94152152 12 17 C11.01 17 10.02 17 9 17 C8.566875 16.030625 8.13375 15.06125 7.6875 14.0625 C6.2985139 10.72268235 6.2985139 10.72268235 3 10 C3 12.31 3 14.62 3 17 C2.01 17 1.02 17 0 17 C0 11.39 0 5.78 0 0 Z " fill="#D9D9D9" transform="translate(384,129)"/>
<path d="M0 0 C1.65 0 3.3 0 5 0 C5.83919398 2.26882087 6.67151724 4.53977027 7.5 6.8125 C7.73847656 7.45509766 7.97695313 8.09769531 8.22265625 8.75976562 C9.27068746 11.64933739 10 13.90076061 10 17 C8.68 17 7.36 17 6 17 C5.67 16.01 5.34 15.02 5 14 C2.03 13.505 2.03 13.505 -1 13 C-1.33 14.32 -1.66 15.64 -2 17 C-2.99 17 -3.98 17 -5 17 C-4.46246904 10.81839396 -2.45417612 5.673142 0 0 Z " fill="#EBEAEA" transform="translate(364,129)"/>
<path d="M0 0 C0.99 0 1.98 0 3 0 C3.33 4.29 3.66 8.58 4 13 C5.65 13 7.3 13 9 13 C9.33 8.71 9.66 4.42 10 0 C11.32 0 12.64 0 14 0 C14.10832169 2.08218362 14.18573541 4.16599129 14.25 6.25 C14.29640625 7.41015625 14.3428125 8.5703125 14.390625 9.765625 C14 13 14 13 12.20703125 15.39453125 C9.03448176 17.70235044 6.82227465 17.48647132 3 17 C1.296875 15.921875 1.296875 15.921875 0 14 C-0.29296875 10.64453125 -0.29296875 10.64453125 -0.1875 6.8125 C-0.16042969 5.54019531 -0.13335937 4.26789063 -0.10546875 2.95703125 C-0.07066406 1.98121094 -0.03585937 1.00539062 0 0 Z " fill="#EBEAEA" transform="translate(511,129)"/>
<path d="M0 0 C3.3 0 6.6 0 10 0 C10 0.99 10 1.98 10 3 C8.02 3 6.04 3 4 3 C4 4.32 4 5.64 4 7 C5.65 7 7.3 7 9 7 C9 7.99 9 8.98 9 10 C7.35 10 5.7 10 4 10 C4 11.32 4 12.64 4 14 C5.98 14 7.96 14 10 14 C10 14.99 10 15.98 10 17 C6.7 17 3.4 17 0 17 C0 11.39 0 5.78 0 0 Z " fill="#E9E9E9" transform="translate(407,129)"/>
<path d="M0 0 C0.94875 0.04125 1.8975 0.0825 2.875 0.125 C3.205 1.445 3.535 2.765 3.875 4.125 C0.905 3.63 0.905 3.63 -2.125 3.125 C-2.125 4.115 -2.125 5.105 -2.125 6.125 C-0.145 6.785 1.835 7.445 3.875 8.125 C4.5 11.5 4.5 11.5 4.875 15.125 C2.875 17.125 2.875 17.125 0.9296875 17.3203125 C-1.08854167 17.25520833 -3.10677083 17.19010417 -5.125 17.125 C-5.455 15.805 -5.785 14.485 -6.125 13.125 C-3.815 13.455 -1.505 13.785 0.875 14.125 C-0.45832095 10.12503714 -2.6207827 9.28717663 -6.125 7.125 C-5.03177966 0.20127119 -5.03177966 0.20127119 0 0 Z " fill="#E7E6E6" transform="translate(629.125,128.875)"/>
<path d="M0 0 C0.94875 0.04125 1.8975 0.0825 2.875 0.125 C3.205 1.445 3.535 2.765 3.875 4.125 C0.905 3.63 0.905 3.63 -2.125 3.125 C-2.125 4.115 -2.125 5.105 -2.125 6.125 C-0.145 6.785 1.835 7.445 3.875 8.125 C4.5 11.5 4.5 11.5 4.875 15.125 C2.875 17.125 2.875 17.125 0.9296875 17.3203125 C-1.08854167 17.25520833 -3.10677083 17.19010417 -5.125 17.125 C-5.455 15.805 -5.785 14.485 -6.125 13.125 C-3.815 13.455 -1.505 13.785 0.875 14.125 C-0.45832095 10.12503714 -2.6207827 9.28717663 -6.125 7.125 C-5.03177966 0.20127119 -5.03177966 0.20127119 0 0 Z " fill="#E7E6E6" transform="translate(246.125,128.875)"/>
<path d="M0 0 C3 0.1875 3 0.1875 5 1.1875 C5 2.1775 5 3.1675 5 4.1875 C3.02 4.1875 1.04 4.1875 -1 4.1875 C-0.12244101 6.44912958 -0.12244101 6.44912958 2.5625 7.4375 C3.366875 8.015 4.17125 8.5925 5 9.1875 C5.4375 12.25 5.4375 12.25 5 15.1875 C3 17.1875 3 17.1875 -0.625 17.3125 C-1.73875 17.27125 -2.8525 17.23 -4 17.1875 C-4.33 15.8675 -4.66 14.5475 -5 13.1875 C-2.69 13.5175 -0.38 13.8475 2 14.1875 C2 13.1975 2 12.2075 2 11.1875 C0.824375 10.754375 0.824375 10.754375 -0.375 10.3125 C-3 9.1875 -3 9.1875 -5 7.1875 C-5.25 4.6875 -5.25 4.6875 -5 2.1875 C-3 0.1875 -3 0.1875 0 0 Z " fill="#EDEDED" transform="translate(450,128.8125)"/>
<path d="M0 0 C1.23556641 0.01740234 1.23556641 0.01740234 2.49609375 0.03515625 C3.32238281 0.04417969 4.14867187 0.05320313 5 0.0625 C5.63808594 0.07410156 6.27617187 0.08570313 6.93359375 0.09765625 C6.93359375 1.08765625 6.93359375 2.07765625 6.93359375 3.09765625 C4.95359375 3.09765625 2.97359375 3.09765625 0.93359375 3.09765625 C0.93359375 4.41765625 0.93359375 5.73765625 0.93359375 7.09765625 C2.58359375 7.09765625 4.23359375 7.09765625 5.93359375 7.09765625 C6.26359375 8.08765625 6.59359375 9.07765625 6.93359375 10.09765625 C4.95359375 10.09765625 2.97359375 10.09765625 0.93359375 10.09765625 C0.93359375 12.40765625 0.93359375 14.71765625 0.93359375 17.09765625 C-0.38640625 17.09765625 -1.70640625 17.09765625 -3.06640625 17.09765625 C-3.09325304 14.45175611 -3.11316982 11.80612529 -3.12890625 9.16015625 C-3.13728516 8.40541016 -3.14566406 7.65066406 -3.15429688 6.87304688 C-3.16293066 4.94771312 -3.11864958 3.02230044 -3.06640625 1.09765625 C-2.06640625 0.09765625 -2.06640625 0.09765625 0 0 Z " fill="#E1E1E1" transform="translate(290.06640625,128.90234375)"/>
<path d="M0 0 C4.29 0 8.58 0 13 0 C13 0.99 13 1.98 13 3 C11.68 3 10.36 3 9 3 C9 7.62 9 12.24 9 17 C7.68 17 6.36 17 5 17 C5 12.38 5 7.76 5 3 C3.35 3 1.7 3 0 3 C0 2.01 0 1.02 0 0 Z " fill="#DBDBDB" transform="translate(534,129)"/>
<path d="M0 0 C2.5 0.25 2.5 0.25 4.5 2.25 C4.75 5.75 4.75 5.75 4.5 9.25 C2.5 11.25 2.5 11.25 -0.625 11.375 C-2.048125 11.313125 -2.048125 11.313125 -3.5 11.25 C-5.00662097 8.23675805 -4.67770373 5.56713623 -4.5 2.25 C-2.5 0.25 -2.5 0.25 0 0 Z " fill="#2F2C2D" transform="translate(473.5,131.75)"/>
<path d="M0 0 C2.5 0.25 2.5 0.25 4.5 2.25 C4.75 5.75 4.75 5.75 4.5 9.25 C2.5 11.25 2.5 11.25 0 11.5 C-2.5 11.25 -2.5 11.25 -4.5 9.25 C-4.75 5.75 -4.75 5.75 -4.5 2.25 C-2.5 0.25 -2.5 0.25 0 0 Z " fill="#2E2A2B" transform="translate(579.5,131.75)"/>
<path d="M0 0 C1.32 0 2.64 0 4 0 C4 4.62 4 9.24 4 14 C5.65 14 7.3 14 9 14 C9 14.99 9 15.98 9 17 C6.03 17 3.06 17 0 17 C0 11.39 0 5.78 0 0 Z " fill="#E5E5E5" transform="translate(492,129)"/>
<path d="M0 0 C2.5625 0.1875 2.5625 0.1875 4.5625 2.1875 C4.90120968 8.51008065 4.90120968 8.51008065 3.5625 11.1875 C1.56295254 11.23004356 -0.43791636 11.22830783 -2.4375 11.1875 C-3.4375 10.1875 -3.4375 10.1875 -3.5703125 8.15625 C-3.56773437 7.3415625 -3.56515625 6.526875 -3.5625 5.6875 C-3.56507813 4.8728125 -3.56765625 4.058125 -3.5703125 3.21875 C-3.37440673 0.2225441 -3.00673063 0.23128697 0 0 Z " fill="#282425" transform="translate(268.4375,131.8125)"/>
<path d="M0 0 C4.29 0 8.58 0 13 0 C13 0.99 13 1.98 13 3 C11.35 3 9.7 3 8 3 C8 7.62 8 12.24 8 17 C7.01 17 6.02 17 5 17 C5 12.38 5 7.76 5 3 C3.35 3 1.7 3 0 3 C0 2.01 0 1.02 0 0 Z " fill="#F3F3F3" transform="translate(306,129)"/>
<path d="M0 0 C1.32 0 2.64 0 4 0 C4 5.61 4 11.22 4 17 C2.68 17 1.36 17 0 17 C0 11.39 0 5.78 0 0 Z " fill="#DFDFDF" transform="translate(557,129)"/>
<path d="M0 0 C0.99 0 1.98 0 3 0 C2.71617054 1.75128818 2.42260471 3.50100003 2.125 5.25 C1.96257812 6.22453125 1.80015625 7.1990625 1.6328125 8.203125 C1.05144152 10.77264117 0.29159735 12.72071056 -1 15 C-1.33 14.34 -1.66 13.68 -2 13 C-2.99 13.495 -2.99 13.495 -4 14 C-3.52525225 11.85318469 -3.04508251 9.70756772 -2.5625 7.5625 C-2.29566406 6.36753906 -2.02882813 5.17257813 -1.75390625 3.94140625 C-1 1 -1 1 0 0 Z " fill="#D9D9D9" transform="translate(348,129)"/>
<path d="M0 0 C2 3 2 3 2 7 C0.68 7 -0.64 7 -2 7 C-1.125 1.125 -1.125 1.125 0 0 Z " fill="#514E4F" transform="translate(366,133)"/>
<path d="M0 0 C1.65 0.33 3.3 0.66 5 1 C5 1.99 5 2.98 5 4 C2.03 3.505 2.03 3.505 -1 3 C-0.67 2.01 -0.34 1.02 0 0 Z " fill="#D7D6D6" transform="translate(450,129)"/>
</svg>
